<?xml version="1.0" standalone="no"?>
<!DOCTYPE svg PUBLIC "-//W3C//DTD SVG 20010904//EN"
 "http://www.w3.org/TR/2001/REC-SVG-20010904/DTD/svg10.dtd">
<svg version="1.0" xmlns="http://www.w3.org/2000/svg"
 width="1170.000000pt" height="1020.000000pt" viewBox="0 0 1170.000000 1020.000000"
 preserveAspectRatio="xMidYMid meet">

<g transform="translate(0.000000,1020.000000) scale(0.100000,-0.100000)"
fill="#000000" stroke="none">
<path d="M150 9535 c0 -3 64 -70 143 -149 78 -79 147 -150 153 -158 6 -7 20
-20 30 -29 11 -8 57 -57 104 -109 47 -51 121 -130 165 -175 44 -44 134 -138
200 -209 66 -71 145 -154 175 -185 31 -31 65 -72 77 -92 l21 -37 -27 -32 c-30
-37 -186 -201 -286 -304 -39 -39 -138 -143 -220 -231 -82 -88 -206 -216 -275
-285 -169 -169 -260 -267 -260 -280 0 -6 166 -11 503 -12 l502 -3 2 -2820 c2
-3087 -1 -2924 59 -3069 60 -144 133 -263 206 -338 111 -112 146 -141 233
-190 169 -97 375 -146 569 -135 301 17 589 170 741 393 22 33 47 67 55 76 16
17 90 195 108 258 13 45 32 190 32 247 l0 43 2715 0 2715 0 0 -42 c1 -197 100
-465 226 -612 80 -94 157 -166 202 -191 20 -12 56 -33 80 -48 58 -37 208 -90
317 -112 102 -20 295 -16 395 9 233 57 420 174 565 351 117 143 187 310 214
510 7 44 9 930 7 2390 -1 1276 -1 2537 1 2803 l4 482 489 0 c293 0 490 4 490
9 0 5 -55 66 -122 134 -68 69 -141 145 -163 169 -22 25 -74 80 -115 124 -305
324 -394 417 -455 480 -38 39 -86 90 -105 114 -19 24 -48 58 -64 77 -24 28
-27 38 -19 56 12 26 174 208 303 342 61 63 229 241 316 335 142 154 192 206
301 318 62 63 110 118 107 123 -5 9 -11414 13 -11414 4z m10820 -245 c0 -5 -8
-18 -17 -28 -10 -10 -72 -76 -138 -148 -182 -196 -325 -347 -500 -529 -130
-135 -165 -176 -165 -193 0 -10 24 -42 52 -72 71 -77 360 -381 498 -525 63
-65 133 -138 155 -161 22 -23 59 -62 83 -86 23 -25 42 -49 42 -54 0 -5 -2030
-9 -5115 -9 -3740 0 -5115 3 -5115 11 0 6 54 65 120 131 66 66 120 123 120
126 0 3 75 81 166 174 325 330 361 369 392 421 48 78 77 38 -366 498 -100 104
-188 198 -196 209 -8 11 -59 67 -114 125 l-100 105 146 5 c304 11 10052 11
10052 0z m-668 -4035 c1 -1097 2 -2004 2 -2016 l1 -21 -1807 -3 c-995 -2
-1808 0 -1808 3 0 4 10 18 23 32 31 34 138 168 166 208 26 37 107 81 196 107
33 9 80 27 105 40 25 13 79 38 120 55 41 17 81 37 90 44 8 8 42 28 75 45 33
17 87 53 120 78 81 63 205 189 205 208 0 8 4 15 9 15 5 0 26 25 48 56 107 155
167 322 214 589 9 53 29 99 29 67 0 -19 56 -42 104 -42 35 0 78 16 201 75 86
41 158 75 160 75 4 0 260 119 730 340 44 21 89 40 101 44 11 3 37 23 58 45 33
33 37 44 38 90 1 36 -4 57 -15 68 -15 15 -26 12 -149 -45 -73 -34 -136 -62
-139 -62 -3 0 7 36 22 81 51 153 47 318 -13 487 -34 98 -84 202 -97 202 -8 0
-163 -69 -246 -110 -69 -34 -506 -236 -590 -273 -214 -94 -292 -137 -338 -186
-96 -103 -102 -260 -15 -382 9 -14 3 -28 -39 -80 -61 -77 -243 -256 -298 -293
-22 -14 -58 -40 -80 -56 -22 -16 -43 -29 -46 -30 -4 0 9 42 28 93 44 114 63
235 63 397 0 168 -14 277 -51 401 -39 133 -90 237 -155 319 -88 112 -88 110
-81 203 18 235 58 654 66 686 15 60 24 198 13 205 -6 3 -33 -9 -61 -26 -40
-27 -256 -155 -339 -203 -10 -5 -31 -20 -47 -31 -17 -12 -64 -40 -105 -63 -41
-24 -99 -57 -128 -74 -197 -119 -263 -158 -304 -180 -25 -14 -63 -36 -85 -50
-41 -26 -120 -71 -169 -97 -16 -9 -43 -25 -60 -36 -60 -43 -152 -87 -165 -81
-8 4 -41 25 -74 46 -33 22 -123 74 -200 117 -161 89 -290 165 -390 229 -38 25
-90 56 -115 70 -25 14 -85 50 -135 80 -49 30 -101 59 -115 65 -14 6 -38 22
-55 34 -55 41 -332 195 -352 196 -15 0 -17 -66 -3 -125 5 -22 19 -139 30 -260
12 -121 29 -294 39 -385 10 -92 14 -175 10 -187 -4 -12 -31 -50 -59 -85 -54
-67 -152 -255 -170 -328 -6 -25 -18 -65 -27 -90 -8 -25 -21 -97 -29 -160 -35
-281 0 -556 97 -755 43 -89 46 -113 24 -179 -27 -79 -36 -149 -36 -286 -1
-250 33 -413 126 -605 89 -186 212 -303 349 -333 l31 -7 -40 -5 c-22 -3 -779
-4 -1682 -2 l-1643 2 0 2008 c0 1105 3 2012 7 2015 3 4 1997 7 4430 7 l4423 0
2 -1995z m-5034 1091 c136 -68 296 -148 357 -176 60 -29 125 -63 145 -76 19
-12 53 -28 75 -34 40 -11 41 -11 345 145 428 218 523 265 540 265 50 0 312
-333 283 -360 -4 -4 -81 -26 -171 -49 -89 -22 -195 -54 -235 -72 -98 -42 -276
-129 -307 -149 -14 -9 -70 -46 -125 -81 -55 -35 -117 -78 -138 -96 -20 -18
-43 -33 -51 -33 -7 0 -40 -14 -72 -30 -54 -28 -63 -29 -99 -19 -22 6 -72 37
-111 69 -39 32 -87 66 -105 75 -19 10 -43 25 -54 35 -11 10 -51 35 -90 55 -38
20 -74 40 -80 45 -18 15 -195 101 -283 137 -48 19 -151 52 -230 73 -78 20
-145 40 -148 42 -12 13 119 196 210 292 25 27 46 53 46 58 0 25 75 -4 298
-116z m3840 -388 c45 -115 62 -198 62 -306 0 -117 -22 -220 -66 -298 -33 -61
-35 -62 -131 -104 -54 -23 -107 -48 -118 -55 -12 -7 -54 -27 -95 -44 -83 -36
-106 -35 -217 0 -144 47 -299 193 -384 361 -21 43 -39 82 -39 88 0 6 12 15 26
21 30 11 407 184 499 228 33 16 116 55 185 86 69 31 145 67 170 80 25 14 52
25 60 25 10 0 27 -29 48 -82z m-3864 -213 c146 -51 300 -173 390 -308 46 -69
80 -200 73 -279 -5 -56 -12 -72 -57 -128 -17 -21 -22 -49 -30 -165 -5 -77 -16
-164 -24 -193 -35 -126 -176 -228 -348 -252 -84 -12 -264 2 -333 25 -109 38
-214 109 -304 208 -41 45 -109 170 -134 247 -55 170 -41 360 39 529 40 85 56
106 137 185 96 93 131 113 251 146 101 28 233 23 340 -15z m1564 24 c26 -7 52
-15 57 -19 6 -3 33 -15 60 -25 100 -36 239 -173 294 -290 104 -218 100 -421
-10 -655 -35 -73 -54 -98 -136 -177 -83 -79 -108 -97 -187 -132 -227 -100
-507 -75 -656 59 -25 22 -60 50 -78 63 -37 24 -36 16 -12 167 7 41 10 93 7
115 -4 35 -38 115 -83 195 -40 73 -56 125 -50 166 7 52 43 163 60 184 7 8 21
32 31 53 27 54 90 115 165 162 25 15 57 38 72 51 27 22 187 80 243 87 65 9
179 6 223 -4z m1259 -216 c4 -10 1 -19 -6 -21 -30 -10 -81 -66 -97 -107 -22
-60 -15 -130 20 -190 22 -37 40 -52 84 -73 83 -37 135 -39 214 -8 63 25 103
26 95 2 -2 -6 -33 -23 -68 -38 -123 -52 -236 -31 -326 60 -107 108 -108 248
-3 346 52 49 76 57 87 29z m82 -150 c27 -43 68 -96 90 -118 23 -21 41 -44 41
-50 0 -33 -120 -52 -167 -27 -20 11 -22 18 -17 56 7 51 -6 65 -41 42 -33 -21
-33 -21 -41 18 -8 47 11 100 47 131 17 14 32 25 34 25 3 0 27 -35 54 -77z
m1257 -58 c-9 -14 -21 -25 -26 -25 -5 0 -53 -21 -107 -46 -54 -26 -134 -63
-178 -84 -144 -68 -419 -196 -765 -357 -107 -49 -157 -63 -174 -46 -3 4 45 32
107 62 109 53 140 68 337 159 47 22 184 86 305 142 121 56 258 120 305 142 47
21 112 53 145 69 63 32 79 27 51 -16z m-858 -262 c45 -10 48 -8 -273 -158 -66
-30 -134 -63 -152 -72 -18 -10 -34 -15 -36 -13 -3 3 -2 47 2 99 l6 94 75 -2
c80 -2 142 14 235 62 47 24 52 24 85 10 19 -9 45 -18 58 -20z m-588 -194 c-58
-233 -82 -304 -151 -437 -78 -149 -117 -201 -250 -332 -75 -73 -257 -183 -368
-221 -106 -37 -106 -36 -50 100 26 65 55 149 64 187 31 131 33 133 246 254 74
42 263 219 318 298 103 148 191 281 191 288 0 13 34 46 38 36 1 -5 -15 -83
-38 -173z m-1977 127 c30 -19 57 -42 61 -51 3 -9 6 -43 6 -75 0 -48 -3 -58
-19 -63 -20 -5 -35 -61 -66 -237 -8 -47 -26 -118 -40 -159 -14 -41 -25 -82
-25 -90 0 -9 -11 -36 -24 -61 -13 -25 -21 -51 -18 -58 3 -11 0 -12 -15 -4 -11
6 -32 43 -47 84 -15 40 -34 87 -41 103 -29 72 -75 381 -75 512 0 78 0 79 32
98 91 56 185 56 271 1z m166 -638 c56 -52 59 -58 28 -58 -26 0 -37 -16 -37
-56 0 -45 97 -62 129 -23 l17 21 138 -32 c126 -30 148 -32 245 -27 58 3 142
15 186 26 78 20 156 27 168 15 10 -10 -50 -165 -103 -264 -27 -52 -50 -98 -50
-103 0 -13 -98 -177 -140 -232 -20 -27 -56 -76 -80 -109 -23 -32 -101 -116
-174 -187 l-131 -129 -180 0 -181 0 1 79 c0 44 4 83 8 87 10 11 9 54 -2 54 -5
0 -14 -12 -19 -27 -10 -28 -10 -27 -11 10 -1 40 -15 50 -24 17 -3 -11 -10 -20
-16 -20 -7 0 -9 9 -6 23 4 15 1 28 -9 36 -13 11 -17 9 -26 -13 -10 -28 -30
-35 -30 -11 0 17 -36 39 -50 30 -6 -3 -10 -17 -10 -30 0 -18 -4 -23 -15 -19
-12 5 -15 -2 -15 -29 0 -27 -5 -36 -21 -40 -19 -5 -21 -11 -15 -41 3 -20 9
-52 12 -71 l7 -35 -177 0 -176 0 -93 93 c-50 52 -110 116 -132 142 -22 27 -57
68 -78 91 -82 91 -185 249 -241 368 -47 99 -133 342 -125 350 3 3 32 -3 65
-13 32 -11 106 -27 163 -36 124 -21 314 -16 401 10 60 18 190 85 190 97 0 4
14 15 30 23 l31 16 15 -37 c43 -102 92 -201 108 -213 12 -10 46 -14 115 -15
93 -1 99 0 135 28 44 33 64 77 97 204 13 51 26 92 28 92 2 0 25 -19 50 -42z
m-1603 -193 c32 -135 94 -314 138 -402 20 -40 36 -75 36 -79 0 -10 110 -185
143 -229 17 -22 53 -64 80 -94 53 -59 56 -82 4 -35 -17 17 -54 47 -82 66 -45
32 -116 103 -199 198 -92 106 -187 459 -185 691 l0 84 20 -50 c11 -27 31 -95
45 -150z m1267 -7 c-2 -5 -8 -8 -14 -8 -11 0 -12 33 -2 44 8 8 23 -25 16 -36z
m4507 -1708 c0 -376 -3 -481 -12 -482 -7 -2 -2008 -3 -4445 -3 l-4433 0 0 483
0 482 4445 0 4445 0 0 -480z m-149 -758 l147 -2 -5 -47 c-12 -115 -71 -323
-91 -323 -17 0 -104 70 -137 110 -11 14 -71 75 -132 135 -62 61 -113 114 -113
117 0 11 31 14 110 13 41 -1 141 -2 221 -3z m-8261 -10 c0 -4 -42 -45 -92 -90
-51 -45 -133 -122 -182 -172 -49 -49 -93 -90 -97 -90 -16 0 -42 51 -66 133
-27 90 -46 204 -37 218 6 11 474 12 474 1z m970 -54 c0 -87 -23 -183 -66 -286
-57 -134 -48 -134 -166 -7 -57 61 -153 161 -215 222 -62 62 -113 117 -113 123
0 7 95 10 280 10 l280 0 0 -62z m6580 54 c0 -5 -37 -47 -83 -94 -46 -46 -97
-102 -113 -123 -16 -21 -75 -86 -132 -144 -120 -121 -117 -121 -173 -16 -43
78 -78 207 -86 313 l-6 72 297 0 c163 0 296 -4 296 -8z m216 -120 c11 -9 102
-101 202 -204 210 -215 214 -224 140 -279 -97 -70 -258 -132 -330 -127 l-43 3
-3 313 c-1 171 1 312 5 312 5 0 17 -8 29 -18z m-7559 -283 c1 -156 0 -295 -3
-308 -5 -22 -8 -23 -67 -19 -68 5 -215 59 -257 95 -14 12 -45 38 -70 58 -72
59 -72 60 6 134 263 252 359 334 379 328 6 -2 11 -107 12 -288z m355 -53 c14
-17 49 -55 76 -85 28 -29 48 -59 46 -65 -8 -21 -106 -74 -178 -95 -114 -35
-106 -48 -104 157 0 97 3 196 5 219 l5 41 61 -70 c34 -39 74 -85 89 -102z
m6968 -66 c0 -155 -3 -192 -14 -196 -32 -12 -256 90 -256 116 0 5 8 15 18 22
9 7 34 33 56 58 61 71 179 190 188 190 4 0 8 -86 8 -190z"/>
<path d="M4295 8840 c-17 -19 -32 -20 -389 -20 -383 0 -425 -4 -378 -37 l22
-15 0 -372 c0 -362 -1 -372 -20 -389 -12 -10 -18 -22 -15 -27 4 -6 152 -10
391 -10 368 0 385 -1 401 -19 9 -11 20 -18 25 -15 11 7 10 212 -1 219 -6 3
-15 -4 -21 -15 -10 -19 -20 -20 -290 -20 l-280 0 0 110 0 110 180 0 c169 0
180 -1 190 -20 22 -42 30 -18 30 90 0 108 -8 132 -30 90 -10 -19 -21 -20 -190
-20 l-180 0 0 95 c0 91 1 95 23 100 13 4 135 5 271 3 255 -3 252 -3 270 -43 3
-6 9 -3 15 5 13 18 15 207 2 214 -4 3 -16 -3 -26 -14z"/>
<path d="M2475 8809 c-4 -6 3 -18 15 -26 19 -14 50 -73 125 -238 8 -16 48
-104 90 -195 43 -91 88 -189 101 -217 35 -75 41 -113 21 -125 -10 -5 -17 -16
-17 -23 0 -13 25 -15 145 -15 124 0 145 2 145 15 0 9 -7 18 -15 21 -22 9 -18
40 14 108 66 139 111 237 156 336 112 250 140 306 163 326 41 37 21 44 -118
44 -130 0 -162 -9 -127 -35 10 -7 17 -21 17 -32 0 -18 -99 -248 -176 -410 -19
-39 -34 -76 -34 -82 0 -5 -5 -13 -10 -16 -11 -7 -21 13 -153 305 -93 204 -96
213 -65 234 19 14 21 18 8 26 -21 14 -277 13 -285 -1z"/>
<path d="M4475 8810 c-4 -6 2 -20 14 -31 22 -20 22 -23 19 -390 -3 -341 -4
-371 -20 -380 -10 -6 -18 -17 -18 -24 0 -12 23 -15 130 -15 104 0 130 3 130
14 0 7 -7 19 -15 26 -12 10 -15 41 -15 156 l0 144 110 0 109 0 68 -100 c128
-189 127 -188 109 -209 -9 -10 -13 -21 -9 -24 11 -11 291 -8 298 3 3 6 -7 18
-23 27 -16 9 -60 59 -98 111 -38 52 -86 117 -106 145 -21 28 -34 54 -30 57 4
4 25 12 47 18 105 30 157 97 163 208 7 125 -50 215 -160 250 -44 14 -110 18
-374 21 -242 4 -323 2 -329 -7z m625 -155 c37 -19 50 -43 50 -92 0 -25 -8 -48
-24 -68 l-24 -30 -201 -3 -201 -3 0 105 c0 74 4 106 13 110 6 3 90 4 185 1
128 -3 180 -8 202 -20z"/>
<path d="M5491 8806 c-7 -8 -4 -15 10 -24 18 -12 19 -26 19 -386 0 -359 -1
-374 -20 -391 -11 -10 -17 -22 -14 -26 3 -5 61 -9 129 -9 130 0 159 10 117 38
-21 14 -22 22 -22 138 l0 124 28 17 c15 9 42 30 60 47 l33 31 25 -30 c14 -16
33 -40 43 -52 10 -12 33 -41 52 -65 18 -23 39 -49 46 -56 7 -7 34 -40 59 -74
40 -51 45 -63 36 -79 -24 -38 -17 -40 151 -37 163 3 189 10 134 36 -15 7 -99
100 -187 205 -88 106 -171 205 -185 221 -14 16 -25 34 -25 40 0 6 19 25 42 41
23 17 60 46 82 65 23 20 51 42 62 50 26 18 167 131 174 140 3 4 13 9 23 13 9
3 17 13 17 21 0 12 -27 15 -164 15 -169 1 -201 -6 -160 -36 18 -13 17 -16 -26
-56 -73 -67 -305 -257 -315 -257 -3 0 -5 65 -5 145 0 134 2 146 21 164 12 11
18 24 14 30 -9 16 -241 13 -254 -3z"/>
<path d="M6416 8811 c-4 -5 2 -16 12 -23 24 -16 91 -146 200 -388 11 -25 48
-102 81 -173 33 -70 66 -146 73 -168 10 -36 10 -42 -5 -51 -9 -5 -17 -16 -17
-23 0 -12 24 -15 138 -15 76 0 142 3 145 6 3 4 -2 18 -13 31 -22 29 -19 40 55
198 26 55 65 138 87 185 22 47 56 119 75 160 84 180 98 206 121 226 42 37 21
44 -123 44 -140 0 -167 -8 -127 -39 27 -20 24 -36 -33 -161 -70 -154 -141
-313 -155 -347 -16 -43 -28 -42 -46 5 -15 36 -76 171 -135 297 -39 86 -69 163
-69 182 0 9 7 21 17 28 34 25 3 33 -136 34 -79 1 -142 -3 -145 -8z"/>
<path d="M7643 8804 c-4 -10 0 -20 10 -26 29 -16 29 -15 -85 -258 -171 -361
-248 -508 -268 -513 -12 -3 -20 -12 -18 -19 4 -10 38 -14 133 -16 133 -3 168
6 133 32 -26 19 -22 53 14 124 l32 62 186 -2 185 -3 27 -50 c37 -67 46 -115
24 -127 -9 -5 -16 -16 -16 -23 0 -13 26 -15 149 -15 85 0 152 4 156 10 3 5 -6
17 -20 26 -19 13 -75 115 -201 369 -96 194 -174 363 -174 377 0 14 7 28 15 32
8 3 12 12 9 20 -4 11 -33 15 -145 15 -121 1 -140 -1 -146 -15z m155 -252 c42
-86 104 -233 101 -237 -4 -3 -190 -8 -236 -6 -13 1 -1 33 74 193 20 43 39 78
42 78 3 0 12 -12 19 -28z"/>
<path d="M8382 8807 c-8 -10 -6 -16 9 -25 18 -12 19 -26 19 -386 0 -359 -1
-374 -20 -391 -11 -10 -17 -22 -14 -26 3 -5 173 -9 378 -9 320 0 375 -2 386
-15 7 -8 19 -15 26 -15 11 0 14 22 14 105 0 88 -3 105 -15 105 -9 0 -18 -7
-21 -15 -5 -13 -45 -15 -275 -15 l-269 0 0 324 c0 321 0 324 22 338 42 28 13
38 -111 38 -85 0 -122 -4 -129 -13z"/>
<path d="M8644 6555 c-10 -26 3 -42 38 -49 46 -8 78 -33 78 -59 0 -12 -14 -51
-30 -85 -43 -92 -47 -129 -18 -172 29 -43 61 -60 114 -60 68 0 69 43 1 61 -23
6 -48 16 -54 21 -21 17 -15 63 17 131 39 85 40 136 3 177 -39 43 -138 66 -149
35z"/>
<path d="M8314 6515 c-11 -29 4 -42 57 -48 29 -4 59 -13 68 -21 16 -17 16 -15
-34 -154 l-26 -72 20 -45 c21 -49 43 -62 118 -72 34 -4 44 -2 49 11 9 24 -11
43 -52 49 -20 3 -42 11 -50 18 -22 18 -17 72 12 128 53 101 41 177 -31 207
-47 19 -124 19 -131 -1z"/>
<path d="M8092 6283 c2 -23 10 -29 48 -40 76 -22 78 -30 42 -125 -45 -121 -47
-134 -27 -178 14 -30 27 -43 60 -55 23 -9 57 -15 76 -13 28 2 33 7 31 23 -5
24 -19 35 -48 35 -27 0 -74 36 -74 57 0 9 16 50 35 93 19 43 35 91 35 107 0
66 -66 120 -148 122 -30 1 -33 -1 -30 -26z"/>
<path d="M5050 5507 c-93 -31 -171 -78 -217 -131 -130 -148 -135 -380 -12
-520 45 -51 125 -110 196 -143 51 -24 71 -27 158 -28 98 0 102 1 185 43 133
66 157 84 205 152 44 62 45 66 45 139 0 96 -20 188 -60 284 -44 106 -98 150
-263 216 -47 18 -165 12 -237 -12z m350 -147 c55 -39 78 -141 44 -199 -21 -36
-77 -71 -114 -71 -71 0 -139 57 -153 129 -10 46 22 115 65 141 44 27 120 27
158 0z"/>
<path d="M6495 5530 c-242 -52 -413 -309 -352 -530 33 -121 115 -217 236 -278
72 -35 79 -37 175 -37 85 0 111 4 161 25 71 29 98 44 145 82 60 48 67 58 107
131 38 71 38 73 38 187 0 114 0 115 -39 188 -50 94 -142 182 -222 211 -64 24
-187 35 -249 21z m342 -166 c13 -8 32 -32 43 -53 24 -49 16 -108 -23 -165 -61
-91 -143 -100 -214 -24 -31 33 -56 134 -43 174 25 76 162 116 237 68z"/>
<path d="M5483 4182 c-16 -10 -29 -47 -37 -105 -6 -41 -3 -59 20 -113 16 -39
34 -66 46 -70 39 -12 85 6 123 48 36 39 37 43 31 95 -9 79 -34 124 -76 139
-40 14 -90 17 -107 6z"/>
<path d="M6102 4152 c-27 -36 -39 -93 -38 -171 2 -81 15 -92 79 -67 25 9 61
27 79 39 33 22 33 24 36 107 1 47 -2 91 -7 99 -6 10 -31 16 -70 18 -55 3 -61
1 -79 -25z"/>
<path d="M4972 4078 c-11 -15 -23 -82 -21 -118 2 -45 2 -95 -2 -114 -2 -10 2
-21 9 -23 7 -3 15 7 18 26 8 41 20 47 28 16 8 -30 32 -33 39 -5 7 28 26 25 37
-5 5 -14 14 -25 19 -25 14 0 43 50 37 65 -3 8 -1 17 5 20 5 4 12 -7 15 -24 10
-48 37 -40 62 19 27 62 27 76 3 90 -11 5 -23 19 -26 30 -13 40 -132 79 -150
50 -3 -6 5 -14 18 -19 37 -14 43 -31 12 -31 -18 0 -29 -6 -32 -20 -6 -24 -16
-25 -33 -5 -9 11 -9 22 -2 44 6 16 8 32 5 35 -10 10 -30 7 -41 -6z m182 -107
c13 -14 14 -21 5 -27 -7 -4 -18 1 -26 11 -26 36 -9 49 21 16z"/>
<path d="M6504 4063 l-32 -4 37 -81 c33 -73 40 -82 79 -99 24 -11 52 -19 62
-19 18 0 105 101 137 157 15 26 3 36 -29 25 -29 -11 -94 -5 -135 14 -30 14
-54 15 -119 7z"/>
<path d="M5827 3903 c-10 -3 -22 -16 -28 -30 -7 -18 -14 -23 -28 -18 -30 9
-58 -26 -66 -83 -11 -85 24 -121 124 -126 8 -1 17 -11 22 -24 10 -26 39 -30
39 -4 0 12 22 26 73 48 82 35 90 51 57 108 -15 24 -29 36 -44 36 -27 0 -46 18
-46 42 0 10 -15 27 -32 38 -34 20 -39 21 -71 13z"/>
<path d="M6266 3763 c6 -74 4 -81 -25 -137 -17 -32 -31 -63 -31 -70 0 -23 50
-116 62 -116 7 0 48 22 90 50 95 60 124 105 92 141 -10 12 -29 25 -42 30 -12
5 -25 17 -29 26 -3 10 -24 48 -46 86 -26 45 -45 67 -58 67 -18 0 -19 -6 -13
-77z"/>
<path d="M5303 3735 c-81 -54 -77 -83 28 -187 63 -62 70 -67 129 -76 77 -11
80 -7 57 103 -13 64 -14 89 -5 128 16 68 0 82 -45 39 -41 -40 -51 -40 -74 -2
-9 17 -22 30 -28 30 -6 0 -33 -16 -62 -35z"/>
<path d="M1696 2663 c-63 -10 -106 -61 -106 -126 0 -56 30 -83 112 -102 85
-19 98 -28 98 -66 0 -31 -43 -69 -79 -69 -46 0 -88 26 -94 59 -10 49 -34 39
-39 -15 -3 -38 0 -49 17 -59 30 -19 97 -26 151 -16 77 14 136 91 120 155 -12
47 -38 67 -111 82 -66 13 -105 38 -105 66 0 19 50 58 74 58 37 0 76 -21 76
-41 0 -24 20 -35 31 -18 14 23 10 76 -6 83 -23 9 -107 14 -139 9z"/>
<path d="M2286 2659 c-22 -5 -55 -21 -73 -35 -107 -81 -91 -278 27 -339 38
-19 120 -27 168 -17 55 13 119 57 139 95 21 41 28 133 14 184 -25 92 -148 142
-275 112z m149 -59 c35 -33 48 -83 43 -159 -6 -77 -20 -105 -64 -126 -50 -24
-89 -19 -128 15 -80 71 -69 254 18 291 35 15 105 4 131 -21z"/>
<path d="M3483 2658 c-12 -20 -71 -155 -105 -243 -18 -45 -44 -92 -59 -106
-16 -15 -25 -29 -22 -33 10 -9 133 -7 133 3 0 5 -10 15 -22 23 -19 13 -21 19
-12 49 l10 34 71 3 71 3 12 -37 c12 -34 11 -38 -9 -53 -12 -9 -19 -20 -15 -24
11 -10 184 -9 184 2 0 5 -11 18 -25 28 -23 17 -85 145 -137 283 -24 63 -35 80
-54 80 -7 0 -16 -6 -21 -12z m21 -165 c15 -31 25 -58 22 -60 -8 -9 -85 -13
-90 -5 -4 7 34 122 41 122 1 0 13 -25 27 -57z"/>
<path d="M9063 2662 c-6 -4 -29 -52 -51 -107 -82 -203 -100 -240 -121 -250
-42 -20 -24 -35 43 -35 69 0 93 14 52 30 -31 11 -30 8 -11 54 l15 36 66 0 65
0 15 -35 c16 -38 12 -55 -12 -55 -8 0 -14 -7 -14 -15 0 -12 17 -15 90 -15 71
0 90 3 90 14 0 8 -8 17 -18 21 -20 6 -42 52 -119 240 -48 120 -61 136 -90 117z
m22 -174 c9 -25 14 -51 11 -57 -9 -14 -77 -11 -83 5 -6 16 38 117 47 107 4 -4
15 -29 25 -55z"/>
<path d="M9898 2661 c-66 -14 -104 -67 -95 -133 8 -57 29 -75 114 -94 86 -19
105 -40 82 -90 -20 -40 -59 -52 -111 -34 -34 12 -43 21 -50 48 -12 47 -32 35
-36 -21 -3 -43 -1 -48 25 -58 41 -16 144 -14 179 4 56 29 78 62 78 117 0 67
-22 88 -109 106 -81 17 -95 27 -95 65 0 70 115 81 141 13 13 -37 34 -24 37 23
2 29 -1 42 -12 46 -29 11 -111 16 -148 8z"/>
<path d="M1910 2651 c0 -5 10 -13 23 -17 12 -4 25 -12 29 -18 11 -16 9 -388
-1 -405 -5 -8 -19 -12 -35 -9 -23 5 -26 2 -26 -23 0 -20 5 -29 16 -29 33 0 83
33 109 70 27 38 28 44 34 227 6 186 6 188 29 191 12 2 20 8 17 13 -8 12 -195
12 -195 0z"/>
<path d="M2610 2651 c0 -5 10 -15 22 -23 21 -14 22 -21 23 -163 0 -142 -1
-148 -22 -162 -13 -9 -23 -19 -23 -24 0 -5 43 -9 96 -9 72 0 95 3 92 13 -3 6
-14 13 -26 15 -29 4 -34 37 -30 191 3 104 6 126 20 135 26 16 72 -22 76 -62 5
-45 -13 -72 -48 -72 -34 0 -45 -13 -25 -30 19 -16 87 -4 118 20 34 27 51 73
43 115 -11 57 -33 65 -183 65 -73 0 -133 -4 -133 -9z"/>
<path d="M2960 2652 c0 -4 9 -15 20 -25 18 -15 20 -29 20 -159 0 -79 -4 -148
-8 -154 -4 -6 -15 -13 -25 -17 -40 -15 -1 -27 84 -27 70 0 89 3 89 14 0 8 -10
16 -22 18 -23 3 -23 6 -26 160 -2 151 -2 157 18 163 28 9 68 -18 76 -52 9 -34
-14 -75 -45 -83 -29 -7 -39 -28 -17 -36 29 -11 85 6 114 36 52 52 50 134 -5
159 -27 12 -273 15 -273 3z"/>
<path d="M3866 2651 c-3 -4 5 -13 18 -19 23 -10 27 -18 121 -242 46 -111 54
-125 76 -125 21 0 27 10 49 70 14 39 37 95 52 125 14 31 31 73 37 93 7 20 26
50 42 66 16 16 29 32 29 35 0 3 -31 6 -70 6 -44 0 -70 -4 -70 -11 0 -6 9 -13
20 -16 11 -3 20 -13 20 -22 0 -23 -76 -215 -87 -218 -4 -2 -25 39 -46 92 -51
132 -53 142 -28 150 12 3 21 11 21 16 0 11 -177 12 -184 0z"/>
<path d="M4320 2649 c0 -6 9 -13 20 -16 11 -3 23 -16 26 -30 11 -41 -1 -292
-14 -305 -7 -7 -12 -16 -12 -20 0 -5 64 -7 143 -6 l142 3 3 48 c3 53 -10 62
-30 20 -12 -26 -19 -28 -75 -31 l-61 -3 -8 57 c-6 53 3 93 20 87 3 -2 21 -3
40 -3 26 0 36 -5 41 -20 3 -11 13 -20 21 -20 12 0 14 12 12 57 -3 58 -24 85
-35 44 -5 -19 -12 -22 -52 -19 -52 3 -57 12 -46 84 l6 44 60 0 c55 0 60 -2 70
-27 12 -33 26 -20 31 27 l3 35 -152 3 c-108 2 -153 -1 -153 -9z"/>
<path d="M4665 2650 c-3 -5 -2 -10 4 -10 5 0 17 -7 25 -16 13 -13 16 -42 16
-165 l0 -149 -26 -10 c-45 -17 -15 -30 71 -30 85 0 116 13 71 29 -22 9 -25 16
-28 78 -1 37 -1 109 0 159 l4 90 31 -4 c44 -6 67 -29 67 -67 0 -36 -22 -60
-62 -70 -35 -9 -35 -21 2 -65 17 -19 30 -38 30 -42 0 -4 16 -30 36 -58 34 -48
38 -50 83 -50 26 0 51 3 54 6 4 4 -8 23 -25 43 -17 19 -49 62 -70 95 l-38 59
29 18 c54 33 68 95 30 143 -20 26 -21 26 -159 26 -82 0 -141 -4 -145 -10z"/>
<path d="M5070 2650 c0 -5 11 -12 25 -16 l25 -6 0 -159 0 -159 -25 -10 c-51
-19 -25 -30 70 -30 95 0 121 11 70 30 -24 9 -25 14 -25 82 l1 73 32 -35 c17
-20 54 -61 81 -93 l49 -57 58 0 c45 0 59 4 59 14 0 8 -9 17 -20 21 -23 7 -170
179 -169 197 0 17 122 121 154 131 14 5 23 13 19 18 -8 13 -104 11 -104 -2 0
-13 -118 -137 -142 -150 -16 -9 -18 -3 -18 60 0 64 2 70 22 73 12 2 23 9 26
16 3 9 -20 12 -92 12 -56 0 -96 -4 -96 -10z"/>
<path d="M5515 2650 c-3 -5 1 -10 9 -10 29 0 36 -38 36 -185 0 -138 -1 -147
-20 -152 -11 -3 -20 -12 -20 -19 0 -11 20 -14 90 -14 71 0 90 3 90 14 0 8 -10
16 -22 18 -21 3 -23 9 -26 76 l-3 72 41 0 c33 0 43 -4 47 -20 3 -11 12 -20 19
-20 10 0 14 16 14 60 0 61 -11 76 -30 40 -8 -15 -21 -20 -49 -20 -45 0 -49 9
-43 83 l4 48 57 -3 c49 -3 56 -6 59 -25 2 -13 10 -23 18 -23 10 0 14 13 14 45
l0 45 -139 0 c-83 0 -142 -4 -146 -10z"/>
<path d="M5830 2650 c0 -5 9 -14 20 -20 19 -10 20 -21 20 -166 l0 -154 -26
-10 c-46 -18 -14 -30 77 -30 90 0 114 11 64 30 l-25 10 0 155 0 156 42 -3 c35
-2 45 -8 56 -30 18 -37 -1 -77 -45 -98 -38 -18 -41 -32 -13 -68 12 -15 39 -55
61 -89 l40 -62 130 0 c127 -1 159 8 104 29 l-26 10 23 40 23 40 74 0 74 0 -7
-42 c-4 -24 -14 -46 -22 -51 -8 -5 -12 -12 -9 -18 7 -11 282 -12 288 -1 3 4 7
25 8 46 5 50 -14 58 -36 17 -15 -29 -19 -31 -75 -31 l-60 0 0 70 0 70 43 0
c38 0 46 -4 56 -26 16 -35 21 -27 25 39 4 68 -7 93 -25 54 -11 -25 -17 -28
-56 -25 -24 2 -43 6 -43 11 0 4 0 32 0 62 l0 55 60 0 c56 0 60 -2 66 -25 4
-14 11 -24 17 -22 12 4 28 67 21 79 -3 5 -86 8 -185 8 -140 0 -180 -3 -177
-12 3 -7 14 -14 26 -16 12 -2 22 -8 22 -13 0 -5 -26 -52 -57 -104 -32 -52 -70
-116 -84 -142 -35 -63 -69 -89 -98 -74 -18 10 -121 152 -121 167 0 3 16 20 35
38 26 25 35 42 35 65 0 34 -15 71 -34 83 -17 12 -286 10 -286 -2z m670 -130
l0 -90 -61 0 -61 0 21 33 c11 17 30 50 42 72 20 38 48 75 56 75 1 0 3 -40 3
-90z"/>
<path d="M6800 2652 c0 -5 11 -14 25 -20 23 -11 25 -17 25 -77 0 -47 -4 -65
-12 -64 -27 3 -38 -2 -38 -16 0 -9 9 -15 25 -15 24 0 25 -2 25 -74 0 -41 -4
-78 -10 -81 -5 -3 -10 -13 -10 -21 0 -13 19 -15 128 -12 122 3 129 4 177 34
116 71 134 254 32 328 -26 19 -45 21 -198 24 -96 2 -169 -1 -169 -6z m284 -50
c42 -24 56 -56 56 -125 0 -112 -48 -167 -147 -167 l-53 0 0 74 0 75 53 3 c64
4 64 21 0 28 l-48 5 -3 54 c-2 29 -1 60 2 67 7 18 100 9 140 -14z"/>
<path d="M7270 2652 c0 -5 11 -14 25 -20 l25 -12 0 -155 0 -155 -26 -10 c-14
-6 -22 -14 -19 -20 9 -14 185 -13 185 1 0 6 -9 13 -19 16 -27 7 -31 30 -31
180 0 106 3 135 16 147 8 9 20 16 25 16 5 0 9 5 9 10 0 6 -38 10 -95 10 -52 0
-95 -4 -95 -8z"/>
<path d="M7496 2651 c-3 -4 6 -13 19 -19 l25 -12 0 -155 0 -155 -26 -10 c-14
-6 -22 -14 -19 -20 9 -14 135 -13 135 1 0 6 -8 13 -19 16 -13 3 -20 17 -25 50
-8 58 -8 188 0 196 3 3 27 -20 52 -51 85 -105 186 -217 201 -224 40 -17 41
-13 41 155 0 181 4 203 31 210 10 3 19 10 19 16 0 7 -26 11 -70 11 -70 0 -93
-14 -45 -26 25 -6 25 -7 25 -120 0 -63 -2 -114 -4 -114 -5 0 -122 135 -175
204 l-44 56 -58 0 c-32 0 -60 -4 -63 -9z"/>
<path d="M7966 2651 c-3 -4 6 -13 19 -19 l25 -12 0 -154 c0 -124 -3 -156 -15
-166 -29 -24 -2 -30 136 -30 l139 0 2 35 c0 19 1 40 2 47 2 26 -22 17 -33 -12
-10 -31 -11 -31 -73 -28 l-63 3 -3 66 c-3 75 3 82 62 72 27 -4 36 -11 36 -25
0 -13 6 -18 17 -16 14 3 17 14 16 58 0 40 -5 56 -16 58 -8 2 -17 -6 -20 -18
-4 -16 -13 -20 -51 -20 l-46 0 0 65 0 65 60 0 c55 0 61 -2 72 -25 16 -36 32
-26 36 23 l3 42 -150 0 c-82 0 -152 -4 -155 -9z"/>
<path d="M8310 2651 c0 -5 9 -12 20 -16 27 -9 34 -56 27 -199 -5 -108 -7 -122
-26 -135 -35 -23 -24 -31 44 -31 49 0 65 3 65 14 0 7 -9 16 -19 19 -18 4 -20
16 -23 126 -2 67 -2 121 0 121 2 0 35 -65 73 -145 39 -80 74 -145 79 -145 5 0
42 66 82 148 l73 147 3 -85 c4 -117 -4 -167 -28 -173 -11 -3 -20 -10 -20 -16
0 -7 32 -11 90 -11 70 0 90 3 90 14 0 7 -8 16 -18 19 -25 6 -32 45 -32 184 0
109 1 115 25 137 14 13 25 26 25 30 0 3 -31 6 -68 6 l-68 0 -59 -125 c-32 -69
-62 -128 -66 -131 -4 -2 -36 54 -70 126 l-63 130 -68 0 c-37 0 -68 -4 -68 -9z"/>
<path d="M9310 2652 c0 -5 11 -14 25 -20 l25 -12 0 -147 c0 -82 -4 -153 -8
-159 -4 -6 -15 -13 -24 -17 -40 -14 -15 -27 52 -27 72 0 91 13 45 30 -25 9
-25 11 -25 132 0 105 2 120 14 108 8 -8 62 -71 121 -140 100 -116 134 -145
158 -137 6 2 9 60 8 149 -3 171 3 214 30 221 10 3 19 10 19 16 0 12 -122 16
-133 4 -4 -3 3 -11 16 -17 21 -11 22 -19 25 -126 l3 -114 -24 22 c-13 13 -64
72 -113 132 l-89 110 -62 0 c-35 0 -63 -4 -63 -8z"/>
</g>
</svg>
